<svg xmlns="http://www.w3.org/2000/svg" width="188" height="142" viewBox="0 0 188 142">
  <g id="home_logo" data-name="home logo" transform="translate(-3372 -4696)">
    <rect id="Rectangle_43" data-name="Rectangle 43" width="188" height="142" transform="translate(3372 4696)"/>
    <g id="Group_87" data-name="Group 87" transform="translate(1892.114 2783.227)">
      <path id="Path_175" data-name="Path 175" d="M1638.15,1036.579v-18.089c2.3-.458,4.579-.9,6.852-1.367,1.716-.353,3.423-.753,5.139-1.108,2.005-.415,4.017-.8,6.022-1.21,1.713-.353,3.412-.786,5.134-1.082a35.145,35.145,0,0,1,5.4-.7c6.082-.086,12.167-.008,18.25-.046a4.2,4.2,0,0,1,4.3,4.175c0,.179,0,.358,0,.537q0,22.993.011,45.985a4.234,4.234,0,0,1-4.412,4.384c-4.374-.027-8.747-.006-13.121-.006-.764,0-.766,0-.766-.8q0-3.221,0-6.441v-.865l-1.179,1.145c-1.582,1.534-3.142,3.093-4.754,4.6a7.5,7.5,0,0,1-4.861,2.053c-2.934.138-5.87.288-8.806.3q-19.115.047-38.23-.008a49.973,49.973,0,0,1-6.578-.488,13.2,13.2,0,0,1-5.913-2.107,9.08,9.08,0,0,1-3.558-5.447,31.342,31.342,0,0,1-.812-7.825q-.014-25.885.027-51.77a22.616,22.616,0,0,1,1.073-7.3,8.818,8.818,0,0,1,5.656-5.729,19.583,19.583,0,0,1,6.25-1.163c4.747-.088,9.5-.168,14.244-.172q30.776-.027,61.551-.029a4.163,4.163,0,0,1,4.183,4.089c-.006,3.36-.012,6.72,0,10.08a4.247,4.247,0,0,1-4.386,4.227q-32.028-.036-64.057-.007a8.86,8.86,0,0,0-1.769.2,1.808,1.808,0,0,0-1.457,1.849c-.014,1.27,0,2.539,0,3.809q0,17.8-.007,35.607a4.007,4.007,0,0,0,3.072,3.683,9.455,9.455,0,0,0,1.831.17q13.837.015,27.674,0c1.365,0,2.735-.125,4.095-.265a4.993,4.993,0,0,0,3.185-2q2.731-3.107,5.449-6.226,3.247-3.723,6.486-7.451c.456-.524.932-1.032,1.362-1.576a.936.936,0,0,0,.176-.64c-.011-.085-.349-.181-.539-.183-2.008-.013-4.021-.1-6.022.025a31.081,31.081,0,0,0-4,.708q-2.262.441-4.517.916c-1.734.364-3.464.749-5.2,1.112-1.426.3-2.855.58-4.283.868-1.447.291-2.894.575-4.34.872-1.2.246-2.392.507-3.588.756A.854.854,0,0,1,1638.15,1036.579Z" transform="translate(-69.358 972.434)" fill="#fff"/>
      <path id="Path_176" data-name="Path 176" d="M1856.815,729.245c3.557,0,7.114-.032,10.671.02a12.291,12.291,0,0,1,2.979.444,2.931,2.931,0,0,1,2.184,2.915c.12,2.215.166,4.435.179,6.654q.039,6.408-.007,12.817a6.044,6.044,0,0,1-.642,2.916,3.679,3.679,0,0,1-2.91,1.678,15.211,15.211,0,0,1-2.55.153c-6.776.011-13.552.025-20.328-.014a13.08,13.08,0,0,1-3.082-.453,3,3,0,0,1-2.353-3.231c-.095-6.217-.089-12.435-.088-18.653a10.258,10.258,0,0,1,.288-2.637,3.019,3.019,0,0,1,3.156-2.406c4.164-.186,8.335-.2,12.5-.284Zm-8.792,21.316a3.307,3.307,0,0,0,.367.049q8.045,0,16.091-.018c1.055,0,1.2-.156,1.2-1.226.011-4.45,0-8.9.013-13.35,0-.432-.138-.6-.583-.6-5.284.012-10.569-.016-15.853.031-1.184.01-1.238.148-1.236,1.235q.009,6.645,0,13.29Z" transform="translate(-284.764 1198.609)" fill="#fff"/>
      <path id="Path_177" data-name="Path 177" d="M2123.8,729.838h.724c8.031,0,16.062-.011,24.093.016a9.635,9.635,0,0,1,2.635.375,3.131,3.131,0,0,1,2.4,3.288c.123,2.6.1,5.2.083,7.807a10.978,10.978,0,0,1-.336,2.742,3.645,3.645,0,0,1-2.9,2.456c-1.634.434-3.313.7-4.977,1.019-1.371.261-2.747.494-4.123.731-1.5.258-2.994.5-4.49.76-1.417.246-2.83.511-4.245.761-.564.1-1.132.179-1.8.284v.685c0,2.028-.013,4.055.01,6.083.005.477-.152.608-.615.6q-2.952-.032-5.9,0c-.449,0-.618-.1-.618-.594q.023-13.239.013-26.478C2123.761,730.222,2123.784,730.068,2123.8,729.838Zm7.107,14.713c.628-.11,1.208-.218,1.792-.313,1.476-.241,2.953-.47,4.428-.716,1.5-.25,3-.524,4.5-.773,1.456-.242,2.916-.467,4.374-.7.439-.069.607-.287.6-.761-.035-1.431-.015-2.863-.012-4.294,0-.929-.02-.972-.958-.973-4.732-.005-9.463,0-14.195-.01-.452,0-.572.147-.568.585.018,2.465.008,4.93.01,7.4C2130.875,744.168,2130.9,744.342,2130.909,744.55Z" transform="translate(-533.869 1198.018)" fill="#fff"/>
      <path id="Path_178" data-name="Path 178" d="M1612,729.8q5.426,0,10.853,0c1.118,0,1.458.339,1.458,1.443,0,1.212,0,2.425,0,3.638a.948.948,0,0,1-.954,1.045c-.335.032-.673.057-1.01.057q-8.617.005-17.234,0a5.1,5.1,0,0,0-.828.06c-.813.135-.911.227-.912,1.068-.009,4.512,0,9.024-.013,13.536,0,.581.34.513.7.513h16.1c.934,0,1.869-.007,2.8,0a1.189,1.189,0,0,1,1.35,1.333q0,1.819,0,3.638a1.183,1.183,0,0,1-1.185,1.264c-.119.009-.238,0-.358,0-7,0-13.994.02-20.99-.021a12.385,12.385,0,0,1-3.2-.473,2.916,2.916,0,0,1-2.2-2.908c-.132-2.355-.155-4.718-.17-7.078q-.037-5.844.008-11.688a16.526,16.526,0,0,1,.319-2.753,2.788,2.788,0,0,1,2.265-2.309,12.715,12.715,0,0,1,2.76-.357C1605.038,729.773,1608.517,729.8,1612,729.8Z" transform="translate(-69.304 1198.058)" fill="#fff"/>
    </g>
  </g>
</svg>
