<svg xmlns="http://www.w3.org/2000/svg" width="565" height="565" viewBox="0 0 565 565">
  <g id="login_logo" data-name="login logo" transform="translate(-3545 -4567)">
    <rect id="Rectangle_44" data-name="Rectangle 44" width="565" height="565" transform="translate(3545 4567)" fill="none"/>
    <rect id="Rectangle_45" data-name="Rectangle 45" width="385" height="385" rx="60" transform="translate(3827.236 4577) rotate(45)"/>
    <g id="Group_87" data-name="Group 87" transform="translate(2190.114 2788.227)">
      <path id="Path_175" data-name="Path 175" d="M1695.142,1105.37v-42.693c5.431-1.08,10.808-2.122,16.172-3.226,4.051-.833,8.08-1.777,12.129-2.616,4.732-.98,9.481-1.879,14.214-2.855,4.044-.834,8.053-1.856,12.119-2.555a82.96,82.96,0,0,1,12.734-1.646c14.356-.2,28.717-.019,43.074-.108,5.1-.032,10.242,3.911,10.148,9.853-.007.422,0,.845,0,1.267q0,54.268.026,108.536a9.992,9.992,0,0,1-10.414,10.347c-10.323-.064-20.646-.015-30.969-.014-1.8,0-1.809,0-1.809-1.883q0-7.6,0-15.2v-2.04c-1.136,1.1-1.959,1.9-2.783,2.7-3.735,3.621-7.416,7.3-11.221,10.847a17.7,17.7,0,0,1-11.474,4.845c-6.924.326-13.856.679-20.785.7q-45.117.112-90.233-.019a117.936,117.936,0,0,1-15.526-1.151,31.163,31.163,0,0,1-13.958-4.972c-4.527-3.169-7.054-7.623-8.4-12.855a73.968,73.968,0,0,1-1.916-18.469q-.034-61.1.064-122.191a53.386,53.386,0,0,1,2.533-17.22,20.813,20.813,0,0,1,13.349-13.521,46.22,46.22,0,0,1,14.752-2.744c11.205-.208,22.413-.4,33.62-.406q72.638-.064,145.276-.068a9.827,9.827,0,0,1,9.874,9.65c-.014,7.93-.029,15.86,0,23.79.027,6.411-5.385,9.983-10.352,9.977q-75.594-.085-151.189-.016a20.9,20.9,0,0,0-4.174.463,4.268,4.268,0,0,0-3.439,4.365c-.032,3-.009,5.994-.009,8.99q0,42.022-.018,84.042a9.458,9.458,0,0,0,7.251,8.694,22.333,22.333,0,0,0,4.321.4q32.659.036,65.318-.011c3.223-.008,6.455-.3,9.665-.626,3.229-.333,5.482-2.4,7.517-4.719q6.447-7.333,12.861-14.7,7.664-8.786,15.309-17.587c1.077-1.236,2.2-2.436,3.215-3.72a2.209,2.209,0,0,0,.416-1.51c-.025-.2-.824-.428-1.273-.431-4.739-.03-9.491-.227-14.214.06a73.353,73.353,0,0,0-9.438,1.672q-5.339,1.04-10.661,2.162c-4.093.858-8.175,1.767-12.268,2.625-3.365.705-6.738,1.37-10.109,2.049-3.414.688-6.832,1.358-10.243,2.059-2.826.581-5.645,1.2-8.469,1.784A2.014,2.014,0,0,1,1695.142,1105.37Z" transform="translate(-69.348 1014.151)" fill="#fff"/>
      <path id="Path_176" data-name="Path 176" d="M1878.509,729.354c8.4,0,16.792-.075,25.186.048a29.008,29.008,0,0,1,7.031,1.047c3.486.937,4.982,3.708,5.154,6.88.285,5.228.391,10.469.423,15.706q.093,15.125-.018,30.251a14.271,14.271,0,0,1-1.515,6.883c-1.491,2.709-4.15,3.492-6.869,3.961a35.894,35.894,0,0,1-6.018.361c-15.993.026-31.987.06-47.979-.033a30.87,30.87,0,0,1-7.275-1.069c-4.216-1.063-5.5-4.132-5.554-7.626-.224-14.673-.209-29.35-.208-44.025a24.212,24.212,0,0,1,.679-6.225c1.018-3.787,3.444-5.5,7.45-5.679,9.827-.439,19.672-.474,29.51-.671Zm-20.752,50.312a7.793,7.793,0,0,0,.866.115q18.989-.01,37.978-.043c2.49-.008,2.822-.369,2.828-2.894.026-10.5,0-21.006.03-31.509,0-1.021-.326-1.408-1.376-1.405-12.472.028-24.945-.037-37.416.073-2.794.025-2.921.35-2.918,2.914q.022,15.684.008,31.368Z" transform="translate(-245.024 1198.609)" fill="#fff"/>
      <path id="Path_177" data-name="Path 177" d="M2123.877,729.841h1.708c18.955,0,37.91-.027,56.864.038a22.739,22.739,0,0,1,6.219.886c4.065,1.188,5.49,3.849,5.675,7.761.291,6.132.247,12.283.2,18.425a25.914,25.914,0,0,1-.793,6.471c-.913,3.387-3.759,4.977-6.844,5.8-3.857,1.024-7.819,1.657-11.747,2.406-3.235.617-6.484,1.166-9.731,1.725-3.529.608-7.067,1.179-10.6,1.793-3.343.582-6.678,1.207-10.019,1.8-1.331.235-2.671.423-4.241.67v1.617c0,4.786-.031,9.572.023,14.357.012,1.126-.358,1.435-1.451,1.423q-6.966-.076-13.934,0c-1.059.01-1.46-.239-1.458-1.4q.053-31.247.031-62.5C2123.779,730.748,2123.834,730.383,2123.877,729.841Zm16.773,34.726c1.482-.26,2.853-.514,4.229-.739,3.483-.569,6.971-1.109,10.452-1.69,3.542-.591,7.076-1.236,10.619-1.824,3.437-.571,6.882-1.1,10.323-1.645,1.037-.163,1.432-.677,1.4-1.8-.082-3.377-.036-6.756-.028-10.135.006-2.194-.047-2.293-2.26-2.3-11.168-.012-22.336.008-33.5-.024-1.066,0-1.349.346-1.341,1.381.043,5.818.018,11.637.022,17.455C2140.569,763.665,2140.618,764.075,2140.651,764.567Z" transform="translate(-448.183 1198.127)" fill="#fff"/>
      <path id="Path_178" data-name="Path 178" d="M1633.494,729.807q12.807,0,25.615,0c2.638,0,3.441.8,3.441,3.405,0,2.862.007,5.723-.007,8.586a2.236,2.236,0,0,1-2.252,2.465c-.792.076-1.589.135-2.384.135q-20.338.012-40.675.012a12.042,12.042,0,0,0-1.954.142c-1.919.319-2.15.536-2.153,2.52-.021,10.65.01,21.3-.032,31.95-.006,1.37.8,1.21,1.651,1.21q19,0,38,0c2.205,0,4.41-.017,6.615,0,2.143.019,3.185,1.062,3.187,3.146q0,4.292,0,8.585a2.793,2.793,0,0,1-2.8,2.983c-.28.02-.562.006-.844.006-16.514,0-33.029.047-49.542-.049a29.231,29.231,0,0,1-7.552-1.117c-3.53-.979-5-3.648-5.181-6.864-.311-5.559-.365-11.136-.4-16.707q-.087-13.793.019-27.586a39.022,39.022,0,0,1,.753-6.5,6.581,6.581,0,0,1,5.345-5.449,30.015,30.015,0,0,1,6.513-.842C1617.073,729.75,1625.284,729.807,1633.494,729.807Z" transform="translate(-69.304 1198.159)" fill="#fff"/>
    </g>
  </g>
</svg>
