<svg xmlns="http://www.w3.org/2000/svg" width="886" height="670" viewBox="0 0 886 670">
  <g id="splash_screen" data-name="splash screen" transform="translate(-100 -4627)">
    <rect id="Rectangle_41" data-name="Rectangle 41" width="886" height="670" transform="translate(100 4627)"/>
    <g id="Group_87" data-name="Group 87" transform="translate(-1190.887 2783.227)">
      <path id="Path_175" data-name="Path 175" d="M1782.861,1211.248v-80.564c10.248-2.038,20.394-4,30.517-6.087,7.644-1.573,15.247-3.352,22.889-4.936,8.93-1.85,17.891-3.547,26.822-5.388,7.63-1.573,15.2-3.5,22.868-4.821,7.96-1.368,16-2.992,24.029-3.106,27.09-.383,54.189-.036,81.283-.2,9.626-.059,19.328,7.38,19.149,18.594-.014.8.007,1.594.007,2.391q0,102.405.049,204.811c.021,11.93-8.82,19.591-19.65,19.524-19.48-.121-38.96-.028-58.441-.025-3.4,0-3.413,0-3.414-3.554q-.005-14.344,0-28.689v-3.851c-2.144,2.081-3.7,3.591-5.252,5.1-7.048,6.834-13.995,13.776-21.175,20.468a33.392,33.392,0,0,1-21.652,9.143c-13.067.614-26.146,1.281-39.223,1.314q-85.135.212-170.271-.035a222.668,222.668,0,0,1-29.3-2.173c-9.317-1.273-18.409-3.833-26.338-9.383-8.542-5.98-13.312-14.385-15.848-24.258-2.937-11.436-3.609-23.128-3.616-34.853q-.064-115.29.12-230.578c.033-10.942,1.167-21.915,4.78-32.5,4.325-12.663,12.746-21.063,25.191-25.515a87.209,87.209,0,0,1,27.836-5.179c21.144-.393,42.293-.748,63.441-.766q137.071-.12,274.141-.127c9.393-.016,18.65,7.5,18.631,18.21-.026,14.964-.055,29.929.008,44.893.052,12.1-10.161,18.838-19.535,18.827q-142.649-.16-285.3-.03a39.451,39.451,0,0,0-7.878.873,8.054,8.054,0,0,0-6.49,8.236c-.06,5.654-.017,11.31-.017,16.965q0,79.295-.033,158.589c-.009,7,5.915,14.853,13.683,16.405a42.093,42.093,0,0,0,8.153.757q61.629.068,123.258-.021c6.081-.015,12.18-.557,18.237-1.181,6.093-.628,10.345-4.538,14.184-8.9q12.165-13.838,24.269-27.731,14.461-16.579,28.889-33.188c2.032-2.333,4.149-4.6,6.066-7.02a4.17,4.17,0,0,0,.786-2.849c-.048-.379-1.556-.808-2.4-.813-8.942-.056-17.91-.428-26.821.112-5.979.362-11.888,2-17.811,3.156q-10.074,1.962-20.118,4.08c-7.724,1.619-15.427,3.336-23.15,4.954-6.35,1.331-12.716,2.585-19.076,3.865-6.443,1.3-12.892,2.563-19.33,3.885-5.332,1.1-10.651,2.26-15.981,3.367A3.8,3.8,0,0,1,1782.861,1211.248Z" transform="translate(-69.333 1078.358)" fill="#fff"/>
      <path id="Path_176" data-name="Path 176" d="M1911.9,729.523c15.842,0,31.686-.141,47.525.09a54.746,54.746,0,0,1,13.268,1.976c6.58,1.768,9.4,7,9.727,12.984.536,9.865.738,19.755.8,29.637q.173,28.541-.033,57.084c-.037,4.441-.629,8.935-2.859,12.989-2.813,5.113-7.831,6.59-12.962,7.476a67.729,67.729,0,0,1-11.355.681c-30.18.05-60.36.113-90.539-.062a58.228,58.228,0,0,1-13.729-2.018c-7.955-2.006-10.379-7.8-10.48-14.391-.423-27.688-.395-55.384-.393-83.077a45.7,45.7,0,0,1,1.281-11.746c1.922-7.146,6.5-10.378,14.058-10.716,18.544-.829,37.122-.893,55.686-1.266Zm-39.159,94.94a14.7,14.7,0,0,0,1.635.218q35.832-.019,71.665-.081c4.7-.015,5.326-.7,5.337-5.462.049-19.819.007-39.638.056-59.458,0-1.926-.615-2.656-2.6-2.652-23.535.053-47.071-.07-70.6.137-5.273.046-5.513.659-5.507,5.5q.04,29.6.015,59.192Z" transform="translate(-183.859 1198.609)" fill="#fff"/>
      <path id="Path_177" data-name="Path 177" d="M2123.992,729.846h3.222c35.768,0,71.537-.051,107.305.072a42.9,42.9,0,0,1,11.736,1.672c7.672,2.241,10.36,7.264,10.709,14.646.547,11.571.467,23.179.368,34.769a48.918,48.918,0,0,1-1.5,12.212c-1.724,6.391-7.094,9.391-12.916,10.937-7.277,1.932-14.754,3.128-22.165,4.541-6.106,1.164-12.236,2.2-18.363,3.256-6.663,1.148-13.337,2.225-20,3.384-6.308,1.1-12.6,2.277-18.908,3.389-2.511.443-5.038.8-8,1.265v3.052c0,9.031-.059,18.062.044,27.092.024,2.124-.675,2.708-2.737,2.685q-13.146-.144-26.294,0c-2,.02-2.755-.451-2.751-2.644q.1-58.966.057-117.93C2123.805,731.557,2123.909,730.87,2123.992,729.846Zm31.652,65.529c2.8-.49,5.383-.971,7.979-1.395,6.573-1.074,13.154-2.093,19.723-3.189,6.684-1.116,13.353-2.333,20.038-3.442,6.487-1.077,12.986-2.078,19.481-3.1,1.956-.308,2.7-1.277,2.65-3.39-.156-6.372-.069-12.749-.052-19.125.011-4.14-.089-4.327-4.265-4.331-21.074-.023-42.149.015-63.223-.045-2.012-.006-2.545.653-2.53,2.6.081,10.979.034,21.959.042,32.939C2155.489,793.672,2155.583,794.446,2155.644,795.374Z" transform="translate(-316.301 1198.295)" fill="#fff"/>
      <path id="Path_178" data-name="Path 178" d="M1666.583,729.822q24.168,0,48.337,0c4.978,0,6.494,1.512,6.494,6.426,0,5.4.012,10.8-.012,16.2-.013,2.808-1.456,4.384-4.251,4.652-1.494.144-3,.254-4.5.255q-38.378.023-76.756.022a22.716,22.716,0,0,0-3.686.269c-3.623.6-4.056,1.012-4.063,4.754-.039,20.1.019,40.193-.06,60.29-.01,2.586,1.513,2.283,3.115,2.283q35.854,0,71.709,0c4.161,0,8.322-.033,12.483,0,4.045.035,6.01,2,6.014,5.936q.008,8.1,0,16.2a5.272,5.272,0,0,1-5.28,5.63c-.529.038-1.062.011-1.593.011-31.162,0-62.326.089-93.487-.092a55.16,55.16,0,0,1-14.249-2.108c-6.66-1.848-9.438-6.884-9.777-12.952-.587-10.49-.689-21.015-.755-31.526q-.165-26.027.036-52.056a73.568,73.568,0,0,1,1.42-12.259c1.008-5.608,4.741-9.017,10.086-10.283a56.65,56.65,0,0,1,12.291-1.589C1635.6,729.714,1651.09,729.822,1666.583,729.822Z" transform="translate(-69.304 1198.316)" fill="#fff"/>
    </g>
  </g>
</svg>
