<svg xmlns="http://www.w3.org/2000/svg" width="1271" height="408" viewBox="0 0 1271 408">
  <g id="tytle_icon" data-name="tytle icon" transform="translate(-1601 -4547)">
    <rect id="Rectangle_42" data-name="Rectangle 42" width="1271" height="408" transform="translate(1601 4547)"/>
    <g id="Group_87" data-name="Group 87" transform="translate(582.114 2668.227)">
      <path id="Path_175" data-name="Path 175" d="M1711.474,1125.083v-49.745c6.328-1.259,12.593-2.472,18.843-3.758,4.72-.971,9.414-2.07,14.133-3.047,5.514-1.142,11.047-2.19,16.562-3.327,4.711-.971,9.383-2.163,14.12-2.977,4.915-.844,9.881-1.847,14.837-1.918,16.727-.236,33.459-.022,50.188-.126,5.944-.037,11.934,4.557,11.824,11.481-.008.492,0,.984,0,1.476q0,63.231.03,126.461c.013,7.366-5.446,12.1-12.133,12.055-12.028-.074-24.056-.017-36.084-.015-2.1,0-2.107,0-2.108-2.195q0-8.857,0-17.714v-2.378c-1.324,1.285-2.282,2.218-3.243,3.149-4.352,4.22-8.641,8.506-13.075,12.638a20.618,20.618,0,0,1-13.369,5.645c-8.068.38-16.144.791-24.218.811q-52.567.131-105.135-.022a137.476,137.476,0,0,1-18.091-1.342c-5.753-.786-11.366-2.366-16.262-5.793-5.274-3.692-8.22-8.882-9.786-14.978a86.186,86.186,0,0,1-2.233-21.52q-.039-71.186.074-142.371a62.191,62.191,0,0,1,2.952-20.064,24.25,24.25,0,0,1,15.554-15.754,53.848,53.848,0,0,1,17.188-3.2c13.056-.242,26.114-.462,39.172-.473q84.635-.075,169.269-.078c5.8-.01,11.516,4.631,11.5,11.244-.016,9.24-.034,18.48.005,27.719.032,7.47-6.274,11.632-12.062,11.625q-88.079-.1-176.158-.018a24.364,24.364,0,0,0-4.864.539,4.972,4.972,0,0,0-4.007,5.085c-.037,3.491-.01,6.984-.01,10.475q0,48.961-.02,97.921a11.019,11.019,0,0,0,8.448,10.13,26,26,0,0,0,5.034.468q38.053.042,76.106-.013c3.755-.009,7.521-.344,11.261-.729,3.762-.388,6.388-2.8,8.758-5.5q7.511-8.544,14.985-17.123,8.929-10.237,17.838-20.492c1.254-1.441,2.562-2.838,3.745-4.335a2.574,2.574,0,0,0,.485-1.759c-.029-.234-.961-.5-1.484-.5-5.521-.035-11.059-.264-16.561.069-3.692.224-7.34,1.236-11,1.948q-6.22,1.211-12.422,2.519c-4.769,1-9.525,2.059-14.294,3.059-3.921.822-7.851,1.6-11.778,2.387-3.978.8-7.96,1.582-11.935,2.4-3.293.676-6.577,1.4-9.868,2.079A2.347,2.347,0,0,1,1711.474,1125.083Z" transform="translate(-69.345 1026.105)" fill="#fff"/>
      <path id="Path_176" data-name="Path 176" d="M1884.725,729.386c9.782,0,19.565-.087,29.345.056a33.8,33.8,0,0,1,8.192,1.22c4.063,1.092,5.8,4.321,6.006,8.017.331,6.091.455,12.2.492,18.3q.107,17.623-.021,35.247a16.626,16.626,0,0,1-1.765,8.02c-1.737,3.157-4.835,4.069-8,4.616a41.826,41.826,0,0,1-7.011.42c-18.635.031-37.27.07-55.9-.038A35.96,35.96,0,0,1,1847.58,804c-4.912-1.239-6.409-4.814-6.471-8.886-.261-17.1-.244-34.2-.243-51.3a28.21,28.21,0,0,1,.791-7.252c1.187-4.413,4.013-6.408,8.68-6.617,11.45-.512,22.921-.552,34.384-.782Zm-24.179,58.621a9.072,9.072,0,0,0,1.009.135q22.125-.012,44.25-.05c2.9-.009,3.288-.43,3.3-3.372.03-12.237,0-24.475.035-36.712,0-1.189-.38-1.64-1.6-1.637-14.532.033-29.064-.043-43.6.084-3.256.029-3.4.407-3.4,3.4q.025,18.274.009,36.548Z" transform="translate(-233.636 1198.609)" fill="#fff"/>
      <path id="Path_177" data-name="Path 177" d="M2123.9,729.842h1.99c22.085,0,44.171-.032,66.256.045a26.49,26.49,0,0,1,7.246,1.033c4.737,1.384,6.4,4.485,6.612,9.043.338,7.145.288,14.312.228,21.468a30.2,30.2,0,0,1-.923,7.54c-1.064,3.946-4.38,5.8-7.975,6.753-4.493,1.193-9.11,1.932-13.686,2.8-3.77.719-7.555,1.358-11.338,2.01-4.113.709-8.235,1.374-12.347,2.09-3.9.678-7.781,1.406-11.675,2.092-1.551.273-3.111.493-4.941.781v1.885c0,5.576-.036,11.152.027,16.728.014,1.311-.417,1.672-1.69,1.658q-8.117-.089-16.236,0c-1.233.012-1.7-.278-1.7-1.632q.062-36.408.036-72.816C2123.783,730.9,2123.848,730.474,2123.9,729.842Zm19.543,40.461c1.726-.3,3.324-.6,4.927-.861,4.058-.663,8.122-1.292,12.178-1.969,4.127-.689,8.245-1.44,12.373-2.125,4.005-.665,8.019-1.283,12.029-1.916,1.208-.19,1.668-.789,1.637-2.093-.1-3.934-.042-7.872-.032-11.809.007-2.556-.055-2.672-2.634-2.674-13.012-.014-26.025.01-39.037-.028-1.242,0-1.571.4-1.562,1.608.05,6.779.021,13.559.026,20.338C2143.346,769.251,2143.4,769.73,2143.442,770.3Z" transform="translate(-423.628 1198.158)" fill="#fff"/>
      <path id="Path_178" data-name="Path 178" d="M1639.654,729.81q14.923,0,29.846,0c3.074,0,4.01.933,4.01,3.968,0,3.334.007,6.669-.008,10a2.606,2.606,0,0,1-2.625,2.873c-.922.089-1.851.157-2.777.157q-23.7.014-47.393.013a14.032,14.032,0,0,0-2.276.166c-2.237.371-2.5.625-2.509,2.936-.024,12.409.012,24.818-.037,37.226-.006,1.6.935,1.409,1.924,1.409q22.139,0,44.277,0c2.569,0,5.138-.02,7.707,0,2.5.022,3.711,1.237,3.714,3.665q0,5,0,10a3.255,3.255,0,0,1-3.26,3.476c-.327.024-.656.006-.984.006-19.241,0-38.483.055-57.724-.057a34.063,34.063,0,0,1-8.8-1.3c-4.112-1.141-5.828-4.25-6.037-8-.362-6.477-.425-12.976-.466-19.466q-.1-16.07.022-32.142a45.422,45.422,0,0,1,.877-7.57,7.668,7.668,0,0,1,6.228-6.349,34.973,34.973,0,0,1,7.589-.981C1620.521,729.744,1630.088,729.81,1639.654,729.81Z" transform="translate(-69.304 1198.188)" fill="#fff"/>
    </g>
  </g>
</svg>
